<?xml version="1.0" encoding="utf-8"?>
<!-- Generator: Adobe Illustrator 18.0.0, SVG Export Plug-In . SVG Version: 6.00 Build 0)  -->
<!DOCTYPE svg PUBLIC "-//W3C//DTD SVG 1.1//EN" "http://www.w3.org/Graphics/SVG/1.1/DTD/svg11.dtd">
<svg version="1.1" id="Слой_2" xmlns="http://www.w3.org/2000/svg" xmlns:xlink="http://www.w3.org/1999/xlink" x="0px" y="0px"
	 viewBox="0 271 1590 603.7" enable-background="new 0 271 1590 603.7" xml:space="preserve">
<path fill="#043258"    d="M1525.9,812.8V699.1h-50v35.1h-51.8V750h-24.8v-92.2
	h-13.2V649h-31.7v8.7h-8.2v-14.7h-17.9v-13.8h-71.6v13.8h-17.4v106.8h-11.5v6h-6.9v-30.7h-5.6v-13.2h-13.6v-8.7h-11.5v8.7h-19.7
	v-8.7h-11v8.7h-5.4V666h-15.6v-9.1h-29.3v9.1h-29.3V560.1h-1.1l-8.1-24.8l-41.7,0.9l-0.9-3.2l-10.6-14.7l-9.5,10.3
	c-2.5-7-5.6-15.5-9.3-25.4c-14.2-38-40.8-94.5-66.9-134.4c-26.1-39.9-64.7-67.4-89.4-78.8c-24.8-11.5-62.8-17-103.2-6.4
	c-40.3,10.6-76.6,45.4-103.2,79.4s-65.6,135.3-82.5,187.1c-14.3,43.6-31.1,116.6-36.2,138.5h-27.6V678h-31.7v-6.9h-7.8v6.9h-19.5
	v134.8h-27.6V708.7h-8.2v-29.3h-4.6v-12.9H388c-4.9-8.9-17.1-15.1-31.4-15.1c-14.3,0-26.6,6.2-31.4,15.1h-2.3v12.9h-6v38h-50v3.2
	h-21.1v6.4h-8.7v85.7h-55.9V673.8H174v-11.9h-47.7v11.9h-12.9v139H-1.3v61.9h1590v-61.9L1525.9,812.8L1525.9,812.8z M943.4,675.7
	h-48v10.6h-17.9v17h-36.7v16.6h-13.8v43.1h-7.8V639.1h-8.7v-12.9h-6.9v-10.1h-24.8v10.1h-10.1v12.9h-16V712h-9.7v100.8h-13.8v-59.6
	h-24c0-3.3,0.3-7.6,0.3-7.6h-2.9l-1.7-31.4c-1.9,0-1.9,0-1.9,0v31.4h-1.2v7.6h-30.2v59.6h-15.1v-59.6H647v-7.6l-17.4-18.5
	l-17.9,18.5l0.3,7.6h-3v-77.5h-42.4c1.3-11.8,4-33,9.8-71c11.5-74.7,38.6-142.6,50-170.1c11.5-27.6,20.1-41.7,35.8-69.2
	c15.6-27.4,62.8-73.4,113.7-72.3c58.7,1.2,93.9,33.3,119.2,64.5c29.3,36.2,60,122.4,77.8,177.9h-12.7l-14.8,24.8h-1.9V675.7z"/>
</svg>
